<svg xmlns="http://www.w3.org/2000/svg" xmlns:xlink="http://www.w3.org/1999/xlink" viewBox="0 0 350 350"><path fill="#aaa" d="M0 0h350v350H0z"/><g transform="translate(175 175)"><circle r="3"/><g fill="none" stroke-linecap="square"><g id="a"><path stroke="#eee" d="m-8-106 4-12H9"/><path stroke="#777" d="m9-118-4 12H-8"/></g><use xlink:href="#a" transform="rotate(12)"/><use xlink:href="#a" transform="rotate(24)"/><use xlink:href="#a" transform="rotate(36)"/><use xlink:href="#a" transform="rotate(48)"/><use xlink:href="#a" transform="rotate(60)"/><use xlink:href="#a" transform="rotate(72)"/><use xlink:href="#a" transform="rotate(84)"/><use xlink:href="#a" transform="rotate(96)"/><use xlink:href="#a" transform="rotate(108)"/><use xlink:href="#a" transform="rotate(120)"/><use xlink:href="#a" transform="rotate(132)"/><use xlink:href="#a" transform="rotate(144)"/><use xlink:href="#a" transform="rotate(156)"/><use xlink:href="#a" transform="rotate(168)"/><use xlink:href="#a" transform="rotate(180)"/><use xlink:href="#a" transform="rotate(-12)"/><use xlink:href="#a" transform="rotate(-24)"/><use xlink:href="#a" transform="rotate(-36)"/><use xlink:href="#a" transform="rotate(-48)"/><use xlink:href="#a" transform="rotate(-60)"/><use xlink:href="#a" transform="rotate(-72)"/><use xlink:href="#a" transform="rotate(-84)"/><use xlink:href="#a" transform="rotate(-96)"/><use xlink:href="#a" transform="rotate(-108)"/><use xlink:href="#a" transform="rotate(-120)"/><use xlink:href="#a" transform="rotate(-132)"/><use xlink:href="#a" transform="rotate(-144)"/><use xlink:href="#a" transform="rotate(-156)"/><use xlink:href="#a" transform="rotate(-168)"/><g id="b"><path stroke="#eee" d="m10-135-4-12H-7"/><path stroke="#777" d="m-7-147 4 12h13"/></g><use xlink:href="#b" transform="rotate(10)"/><use xlink:href="#b" transform="rotate(20)"/><use xlink:href="#b" transform="rotate(30)"/><use xlink:href="#b" transform="rotate(40)"/><use xlink:href="#b" transform="rotate(50)"/><use xlink:href="#b" transform="rotate(60)"/><use xlink:href="#b" transform="rotate(70)"/><use xlink:href="#b" transform="rotate(80)"/><use xlink:href="#b" transform="rotate(90)"/><use xlink:href="#b" transform="rotate(100)"/><use xlink:href="#b" transform="rotate(110)"/><use xlink:href="#b" transform="rotate(120)"/><use xlink:href="#b" transform="rotate(130)"/><use xlink:href="#b" transform="rotate(140)"/><use xlink:href="#b" transform="rotate(150)"/><use xlink:href="#b" transform="rotate(160)"/><use xlink:href="#b" transform="rotate(170)"/><use xlink:href="#b" transform="rotate(180)"/><use xlink:href="#b" transform="rotate(-10)"/><use xlink:href="#b" transform="rotate(-20)"/><use xlink:href="#b" transform="rotate(-30)"/><use xlink:href="#b" transform="rotate(-40)"/><use xlink:href="#b" transform="rotate(-50)"/><use xlink:href="#b" transform="rotate(-60)"/><use xlink:href="#b" transform="rotate(-70)"/><use xlink:href="#b" transform="rotate(-80)"/><use xlink:href="#b" transform="rotate(-90)"/><use xlink:href="#b" transform="rotate(-100)"/><use xlink:href="#b" transform="rotate(-110)"/><use xlink:href="#b" transform="rotate(-120)"/><use xlink:href="#b" transform="rotate(-130)"/><use xlink:href="#b" transform="rotate(-140)"/><use xlink:href="#b" transform="rotate(-150)"/><use xlink:href="#b" transform="rotate(-160)"/><use xlink:href="#b" transform="rotate(-170)"/></g></g></svg>